Coordinates
version=1
nRows=30
nColumns=23
inDegrees=yes

Units are S.I. units (second, meters, Newtons, ...)
If the header above contains a line with 'inDegrees', this indicates whether rotational values are in degrees (yes) or radians (no).

endheader
time	pelvis_tilt	pelvis_list	pelvis_rotation	pelvis_tx	pelvis_ty	pelvis_tz	hip_flexion_r	hip_adduction_r	hip_rotation_r	knee_angle_r	knee_angle_r_beta	ankle_angle_r	subtalar_angle_r	mtp_angle_r	hip_flexion_l	hip_adduction_l	hip_rotation_l	knee_angle_l	knee_angle_l_beta	ankle_angle_l	subtalar_angle_l	mtp_angle_l
      0.00000000	     -5.44725799	      0.52802870	     -2.16842347	      2.29346885	      0.97703502	      0.99248936	      3.22446365	      0.49640245	     -3.39255180	     34.24183834	      0.59763282	     27.56461956	      4.30689033	      0.00000000	     36.59619822	     -2.34274828	     -3.07431456	     95.67736186	      1.66988498	     -3.04847071	    -11.29771414	      0.00000000
      0.00666667	     -5.28178041	      1.02512290	     -2.04742366	      2.29630344	      0.98215014	      0.99223932	      0.16577777	     -0.28640971	     -4.12469331	     32.04738968	      0.55933247	     24.82016246	      5.29123361	      0.00000000	     37.63090935	     -1.74853695	     -3.44626648	     92.96246278	      1.62250106	     -2.58905412	    -11.75829358	      0.00000000
      0.01333333	     -5.23969472	      1.62192458	     -2.02113734	      2.29911674	      0.98685104	      0.99217607	     -2.80195768	     -1.05838777	     -4.59250777	     29.62009779	      0.51696823	     21.37041848	      5.77458811	      0.00000000	     38.59605439	     -1.12147065	     -3.95180354	     90.07753708	      1.57214960	     -1.89982363	    -11.88931853	      0.00000000
      0.02000000	     -5.29755812	      2.25827007	     -2.03928333	      2.30189311	      0.99118191	      0.99213938	     -5.66269717	     -1.74636197	     -4.70465809	     27.02997542	      0.47176207	     17.48488238	      5.54076357	      0.00000000	     39.49673159	     -0.45064268	     -4.48288081	     87.01948427	      1.51877651	     -1.20204757	    -12.03747208	      0.00000000
      0.02666667	     -5.65972151	      2.98935132	     -2.08846292	      2.30451263	      0.99482398	      0.99197903	     -7.95898228	     -2.65578261	     -5.26299837	     24.79190819	      0.43270043	     13.58301554	      6.03004224	      0.00000000	     40.59886977	      0.34567110	     -5.03755453	     83.78979778	      1.46240785	     -0.61050888	    -12.43210444	      0.00000000
      0.03333333	     -5.83548228	      3.52969378	     -2.26397392	      2.30706513	      0.99856841	      0.99196858	    -10.41228347	     -3.24549026	     -5.20634299	     22.43370019	      0.39154193	      9.35053614	      5.66459901	      0.00000000	     41.33461511	      0.82587672	     -5.63841643	     80.39447920	      1.40314836	     -0.05526835	    -12.84614187	      0.00000000
      0.04000000	     -6.32002592	      4.00939780	     -2.38863715	      2.30945846	      1.00166067	      0.99176919	    -12.22929218	     -3.86960618	     -5.53507028	     20.58709964	      0.35931267	      5.22001104	      5.72895276	      0.00000000	     42.30517803	      1.29415143	     -6.14413338	     76.84613091	      1.34121800	      0.41820400	    -13.32680784	      0.00000000
      0.04666667	     -7.37069887	      4.33410273	     -2.75492566	      2.31132325	      1.00388062	      0.99187136	    -12.85889325	     -4.49338090	     -5.90026910	     19.70760021	      0.34396251	      1.48779855	      6.37186764	      0.00000000	     43.79166422	      1.32644960	     -6.82540017	     73.19301469	      1.27745910	      1.01844237	    -13.44132590	      0.00000000
      0.05333333	     -7.62060980	      4.50468182	     -2.72643301	      2.31351917	      1.00692158	      0.99140029	    -14.55988482	     -4.77316824	     -6.19911492	     18.43730543	      0.32179168	     -2.55519122	      5.89611958	      0.00000000	     44.21971056	      1.62605451	     -7.06311487	     69.24346910	      1.20852652	      1.30511195	    -13.90609953	      0.00000000
      0.06000000	     -8.34698469	      4.53412419	     -2.82700700	      2.31524844	      1.00909549	      0.99117384	    -15.15193716	     -5.07063956	     -6.72107234	     18.27056119	      0.31888145	     -5.92657888	      6.02745590	      0.00000000	     45.04999519	      1.56749263	     -7.45415854	     65.18303705	      1.13765861	      1.78704392	    -13.81227175	      0.00000000
      0.06666667	     -9.16708746	      4.38488063	     -2.93027296	      2.31672494	      1.01085300	      0.99100476	    -15.30377172	     -5.21072530	     -7.12382646	     18.75049817	      0.32725793	     -8.78938910	      6.10289539	      0.00000000	     45.83451781	      1.29639666	     -7.83509869	     60.97443274	      1.06420461	      2.34073804	    -13.37531517	      0.00000000
      0.07333333	     -9.81763373	      4.26772931	     -2.88332346	      2.31814170	      1.01243175	      0.99070349	    -15.43599591	     -5.35707782	     -7.54983405	     19.68944475	      0.34364564	    -11.09738290	      5.81063690	      0.00000000	     46.25267999	      1.16712210	     -8.22112828	     56.52766407	      0.98659386	      2.91148633	    -12.61833725	      0.00000000
      0.08000000	    -10.30446792	      4.19467809	     -2.78474951	      2.31937100	      1.01375562	      0.99036645	    -15.46080250	     -5.53758915	     -7.81106220	     21.23086750	      0.37054854	    -12.66212157	      5.20305572	      0.00000000	     46.30959563	      1.14655228	     -8.65851358	     51.87487970	      0.90538745	      3.55382326	    -11.42609511	      0.00000000
      0.08666667	    -10.73234368	      4.14962160	     -2.65783985	      2.32040896	      1.01465751	      0.99003437	    -15.30096652	     -5.72786830	     -7.90602866	     23.28688397	      0.40643280	    -13.56887500	      4.39240568	      0.00000000	     46.13416906	      1.18346345	     -9.17756882	     47.08236283	      0.82174225	      4.31320630	     -9.80898102	      0.00000000
      0.09333333	    -11.03222075	      4.18657909	     -2.46599533	      2.32130277	      1.01512614	      0.98968963	    -15.05859099	     -5.97092998	     -7.92582221	     25.81155364	      0.45049660	    -13.88057185	      3.32295398	      0.00000000	     45.65471869	      1.39196394	     -9.72283229	     42.17601631	      0.73611035	      5.13936121	     -7.87690463	      0.00000000
      0.10000000	    -11.19071673	      4.29150779	     -2.17641561	      2.32206297	      1.01519062	      0.98924333	    -14.79943663	     -6.22288415	     -7.88110605	     28.68337136	      0.50061927	    -13.74416204	      2.06100873	      0.00000000	     44.88233413	      1.83877035	    -10.11133531	     37.23644512	      0.64989857	      6.00156665	     -5.77052246	      0.00000000
      0.10666667	    -11.20643190	      4.50808130	     -1.96969047	      2.32267909	      1.01486161	      0.98900027	    -14.46847381	     -6.61455271	     -7.80326662	     31.92982265	      0.55728053	    -13.34340894	      0.75187019	      0.00000000	     43.80544962	      2.39176763	    -10.53911946	     32.30095064	      0.56375794	      6.85868022	     -3.60463064	      0.00000000
      0.11333333	    -11.10148432	      4.75261573	     -1.58757096	      2.32324170	      1.01402519	      0.98862719	    -14.16170486	     -6.97922296	     -7.92144056	     35.39505858	      0.61776031	    -12.80272942	     -0.78578041	      0.00000000	     42.52774943	      3.18729772	    -10.57783877	     27.55150509	      0.48086448	      7.66601065	     -1.57764716	      0.00000000
      0.12000000	    -10.85376111	      5.11995728	     -1.20713681	      2.32371773	      1.01283990	      0.98826103	    -13.84591818	     -7.57648734	     -8.37447457	     39.10692703	      0.68254464	    -12.22551226	     -1.95310035	      0.00000000	     40.96946861	      4.19446518	    -10.25851466	     22.91697172	      0.39997661	      8.19054513	     -0.32789900	      0.00000000
      0.12666667	    -10.56519714	      5.47662292	     -0.70783384	      2.32412827	      1.01118954	      0.98785547	    -13.48566523	     -8.12963365	     -8.95580192	     42.91586494	      0.74902314	    -11.81602055	     -3.44144399	      0.00000000	     39.32729133	      5.28244993	     -9.50506664	     18.64535204	      0.32542278	      8.50913243	      0.38686429	      0.00000000
      0.13333333	    -10.26556389	      5.80256005	     -0.19265969	      2.32449706	      1.00899681	      0.98752092	    -13.01812915	     -8.66345796	     -9.58608656	     46.82508929	      0.81725198	    -11.59477179	     -5.30563298	      0.00000000	     37.86910616	      6.17727618	     -9.14526220	     15.30432816	      0.26711092	      8.94443070	      1.58854761	      0.00000000
      0.14000000	     -9.91169430	      6.21238813	      0.41175833	      2.32479161	      1.00652397	      0.98711050	    -12.51813807	     -9.32505458	    -10.43528707	     50.81141139	      0.88682643	    -11.42460511	     -7.09270581	      0.00000000	     36.44774264	      7.15838390	     -8.66845219	     12.65844412	      0.22093153	      9.23223522	      2.22384580	      0.00000000
      0.14666667	     -9.47337617	      6.69506601	      1.10280930	      2.32490873	      1.00397141	      0.98659418	    -12.03546743	    -10.17705029	    -11.60249006	     54.82695813	      0.95691094	    -11.32724674	     -8.61590292	      0.00000000	     34.78359081	      8.32872456	     -7.31713432	     10.17103950	      0.17751813	      8.48969098	      0.79402260	      0.00000000
      0.15333333	     -9.14209780	      7.12907344	      1.90589278	      2.32480153	      1.00095203	      0.98582934	    -11.33818969	    -10.95717158	    -12.72284989	     58.86532622	      1.02739376	    -11.29800929	    -10.71097434	      0.00000000	     33.88219249	      9.22523746	     -7.28429310	      9.55745446	      0.16680905	      8.54268896	      1.14875135	      0.00000000
      0.16000000	     -8.94226509	      7.83202692	      2.62215941	      2.32458889	      0.99768714	      0.98515359	    -10.37528032	    -12.13527266	    -13.78750941	     62.95435778	      1.09876082	    -11.48948790	    -12.68255767	      0.00000000	     33.11440010	     10.27728905	     -7.51313675	      9.37774369	      0.16367250	      7.81891773	      0.91604258	      0.00000000
      0.16666667	     -8.78603495	      8.54806642	      3.41386387	      2.32405081	      0.99425350	      0.98432642	     -9.25496945	    -13.36570688	    -14.81531654	     67.04687477	      1.17018872	    -11.52486988	    -14.62383710	      0.00000000	     32.60747105	     11.31516674	     -7.75267997	     10.09143615	      0.17612879	      6.87827700	      0.28095677	      0.00000000
      0.17333333	     -8.93913817	      9.23845216	      4.22793161	      2.32306433	      0.99028366	      0.98343147	     -7.61352605	    -14.61501850	    -15.61391908	     71.20546911	      1.24276988	    -11.41093240	    -16.50684755	      0.00000000	     32.69916454	     12.24837607	     -8.11925581	     11.73840361	      0.20487379	      5.72696567	     -0.64343597	      0.00000000
      0.18000000	     -9.07709663	      9.86556143	      5.02697492	      2.32181514	      0.98622232	      0.98256697	     -5.84752644	    -15.82527195	    -16.24088934	     75.27030130	      1.31371459	    -11.31802433	    -18.31280037	      0.00000000	     33.05195752	     12.97648022	     -8.79232158	     14.34859902	      0.25043030	      4.78823178	     -1.42236706	      0.00000000
      0.18666667	     -9.15790257	     10.35997571	      5.72047982	      2.32027457	      0.98204602	      0.98192716	     -3.93490013	    -16.86132753	    -16.53389008	     79.22954501	      1.38281643	    -11.12172189	    -19.99998211	      0.00000000	     33.63033309	     13.33743431	     -9.90332108	     17.88059879	      0.31207532	      4.40140455	     -1.54049987	      0.00000000
      0.19333333	     -9.31874955	     10.74378429	      6.41357103	      2.31837769	      0.97772131	      0.98133349	     -1.75019453	    -17.78706354	    -16.62970778	     83.08013765	      1.45002194	    -10.85732398	    -21.38338984	      0.00000000	     34.25513845	     13.63750713	    -10.31034886	     21.58888753	      0.37679717	      4.16310020	     -2.47866217	      0.00000000
